<svg width="116" height="98" viewBox="0 0 116 98" fill="none" xmlns="http://www.w3.org/2000/svg">
<path d="M115.07 48.6133C113.792 40.8371 110.734 33.6852 106.633 26.9909C101.116 17.979 93.9745 10.9562 84.8994 6.27217C82.4993 5.02843 79.9586 3.95139 77.282 3.04433C70.3878 0.703935 63.2972 0.21036 56.0937 0.092687C47.21 -0.0544047 38.809 2.00324 31.2505 6.27054C30.9445 6.44378 30.6369 6.62029 30.331 6.8017C22.6514 11.3648 16.3249 16.9347 11.4806 23.544C6.17491 30.7858 2.63779 39.2763 1.02793 49.066C-0.241633 56.7933 -0.132018 64.4584 1.70362 72.0794C3.25131 78.4975 6.03094 84.4073 9.41753 90.0327C10.0703 91.113 10.7624 92.1753 11.4822 93.2197C12.2757 94.3784 13.1035 95.5111 13.9494 96.6273C14.9457 97.9479 16.0288 98.1146 16.9188 97.4396C17.7941 96.7711 17.7761 95.8085 16.8566 94.3588C16.8042 94.282 16.7453 94.2068 16.6979 94.13C15.1404 91.6295 13.5044 89.173 12.0385 86.6202C11.8503 86.2917 11.6655 85.9632 11.4839 85.6314C5.30617 74.3805 3.32329 62.337 5.37325 49.6266C6.40395 43.2347 8.36393 37.181 11.4839 31.6079C12.4475 29.882 13.5256 28.2003 14.7216 26.5692C22.2801 16.263 31.6546 9.37254 42.6847 6.27054C46.6652 5.15264 50.86 4.52505 55.261 4.41064C58.5919 4.59533 60.9396 4.68358 63.2841 4.85682C66.3598 5.08563 69.3211 5.55796 72.1645 6.2689C82.038 8.73351 90.5045 14.0631 97.4691 22.0241C105.607 31.3268 110.389 42.3341 111.308 54.783C112.102 65.5648 110.06 75.7893 104.581 85.2032C102.636 88.5454 100.509 91.7798 98.4802 95.0747C98.0188 95.8265 97.5836 96.5685 98.5325 97.3808C99.4781 98.193 100.342 98.0525 101.099 97.2843C101.898 96.4688 102.657 95.5764 103.256 94.6056C106.017 90.1095 108.92 85.6755 111.384 81.016C114.075 75.9217 115.097 70.3044 115.552 64.5711C115.981 59.2268 115.937 53.8857 115.073 48.6101L115.07 48.6133Z" fill="#2E2320"/>
<path d="M50.1828 54.752C50.1828 56.6085 50.9203 58.389 52.233 59.7018C53.5458 61.0145 55.3263 61.752 57.1828 61.752C59.0393 61.752 60.8198 61.0145 62.1325 59.7018C63.4453 58.389 64.1828 56.6085 64.1828 54.752C64.1828 52.8955 63.4453 51.115 62.1325 49.8023C60.8198 48.4895 59.0393 47.752 57.1828 47.752C55.3263 47.752 53.5458 48.4895 52.233 49.8023C50.9203 51.115 50.1828 52.8955 50.1828 54.752Z" stroke="#EB3300" stroke-width="4" stroke-linecap="round" stroke-linejoin="round"/>
<path d="M70.3825 67.9516L60.4821 77.8519C59.6071 78.7261 58.4208 79.2171 57.184 79.2171C55.9471 79.2171 54.7608 78.7261 53.8858 77.8519L43.9831 67.9516C41.3726 65.341 39.5949 62.0149 38.8747 58.3939C38.1545 54.773 38.5243 51.0198 39.9371 47.609C41.35 44.1981 43.7425 41.2828 46.8122 39.2318C49.8819 37.1807 53.4909 36.0859 57.1828 36.0859C60.8747 36.0859 64.4836 37.1807 67.5533 39.2318C70.623 41.2828 73.0156 44.1981 74.4284 47.609C75.8413 51.0198 76.211 54.773 75.4908 58.3939C74.7707 62.0149 72.9929 65.341 70.3825 67.9516Z" stroke="#EB3300" stroke-width="4" stroke-linecap="round" stroke-linejoin="round"/>
</svg>
