<svg width="116" height="99" viewBox="0 0 116 99" fill="none" xmlns="http://www.w3.org/2000/svg">
<path d="M115.07 48.8433C113.792 41.0671 110.734 33.9151 106.633 27.2208C101.116 18.209 93.9745 11.1862 84.8994 6.50215C82.4993 5.25841 79.9586 4.18137 77.282 3.27431C70.3878 0.933915 63.2972 0.440341 56.0937 0.322667C47.21 0.175576 38.809 2.23322 31.2505 6.50052C30.9445 6.67376 30.6369 6.85027 30.331 7.03168C22.6514 11.5948 16.3249 17.1647 11.4806 23.774C6.17491 31.0158 2.63779 39.5063 1.02793 49.296C-0.241633 57.0232 -0.132018 64.6883 1.70362 72.3093C3.25131 78.7274 6.03094 84.6373 9.41753 90.2627C10.0703 91.343 10.7624 92.4053 11.4822 93.4497C12.2757 94.6084 13.1035 95.741 13.9494 96.8573C14.9457 98.1779 16.0288 98.3446 16.9188 97.6696C17.7941 97.0011 17.7761 96.0385 16.8566 94.5888C16.8042 94.512 16.7453 94.4368 16.6979 94.36C15.1404 91.8595 13.5044 89.403 12.0385 86.8502C11.8503 86.5217 11.6655 86.1932 11.4839 85.8614C5.30617 74.6105 3.32329 62.567 5.37325 49.8566C6.40395 43.4647 8.36393 37.411 11.4839 31.8379C12.4475 30.112 13.5256 28.4303 14.7216 26.7992C22.2801 16.4929 31.6546 9.60252 42.6847 6.50052C46.6652 5.38262 50.86 4.75503 55.261 4.64062C58.5919 4.82531 60.9396 4.91356 63.2841 5.0868C66.3598 5.31561 69.3211 5.78794 72.1645 6.49888C82.038 8.96349 90.5045 14.2931 97.4691 22.254C105.607 31.5568 110.389 42.5641 111.308 55.013C112.102 65.7948 110.06 76.0193 104.581 85.4332C102.636 88.7754 100.509 92.0098 98.4802 95.3047C98.0188 96.0565 97.5836 96.7985 98.5325 97.6107C99.4781 98.423 100.342 98.2825 101.099 97.5143C101.898 96.6988 102.657 95.8064 103.256 94.8356C106.017 90.3395 108.92 85.9055 111.384 81.246C114.075 76.1517 115.097 70.5344 115.552 64.8011C115.981 59.4568 115.937 54.1157 115.073 48.84L115.07 48.8433Z" fill="#2E2320"/>
<path d="M53.604 60.982L79.2707 35.3153M53.604 60.982L61.7697 77.3153C61.8721 77.5387 62.0364 77.728 62.2432 77.8607C62.4501 77.9935 62.6906 78.064 62.9364 78.064C63.1821 78.064 63.4227 77.9935 63.6295 77.8607C63.8363 77.728 64.0007 77.5387 64.103 77.3153L79.2707 35.3153M53.604 60.982L37.2697 52.8153C37.0463 52.7129 36.857 52.5486 36.7243 52.3418C36.5915 52.1349 36.521 51.8944 36.521 51.6486C36.521 51.4029 36.5915 51.1623 36.7243 50.9555C36.857 50.7487 37.0463 50.5843 37.2697 50.482L79.2707 35.3153" stroke="#EB3300" stroke-width="4" stroke-linecap="round" stroke-linejoin="round"/>
</svg>
