<svg width="116" height="98" viewBox="0 0 116 98" fill="none" xmlns="http://www.w3.org/2000/svg">
<path d="M115.07 48.528C113.792 40.7518 110.734 33.5998 106.633 26.9055C101.116 17.8937 93.9745 10.8709 84.8994 6.18684C82.4993 4.9431 79.9586 3.86606 77.282 2.959C70.3878 0.618607 63.2972 0.125033 56.0937 0.00735985C47.21 -0.139732 38.809 1.91792 31.2505 6.18521C30.9445 6.35845 30.6369 6.53496 30.331 6.71637C22.6514 11.2795 16.3249 16.8494 11.4806 23.4587C6.17491 30.7005 2.63779 39.1909 1.02793 48.9807C-0.241633 56.7079 -0.132018 64.373 1.70362 71.994C3.25131 78.4121 6.03094 84.3219 9.41753 89.9474C10.0703 91.0277 10.7624 92.09 11.4822 93.1344C12.2757 94.2931 13.1035 95.4257 13.9494 96.542C14.9457 97.8626 16.0288 98.0293 16.9188 97.3543C17.7941 96.6858 17.7761 95.7232 16.8566 94.2735C16.8042 94.1967 16.7453 94.1215 16.6979 94.0447C15.1404 91.5441 13.5044 89.0877 12.0385 86.5349C11.8503 86.2064 11.6655 85.8778 11.4839 85.5461C5.30617 74.2952 3.32329 62.2517 5.37325 49.5413C6.40395 43.1493 8.36393 37.0957 11.4839 31.5226C12.4475 29.7967 13.5256 28.1149 14.7216 26.4839C22.2801 16.1776 31.6546 9.28721 42.6847 6.18521C46.6652 5.06731 50.86 4.43972 55.261 4.32532C58.5919 4.51 60.9396 4.59825 63.2841 4.7715C66.3598 5.0003 69.3211 5.47263 72.1645 6.18358C82.038 8.64818 90.5045 13.9778 97.4691 21.9387C105.607 31.2415 110.389 42.2488 111.308 54.6977C112.102 65.4795 110.06 75.704 104.581 85.1179C102.636 88.4601 100.509 91.6945 98.4802 94.9894C98.0188 95.7412 97.5836 96.4832 98.5325 97.2954C99.4781 98.1077 100.342 97.9671 101.099 97.199C101.898 96.3835 102.657 95.4911 103.256 94.5203C106.017 90.0242 108.92 85.5902 111.384 80.9307C114.075 75.8364 115.097 70.2191 115.552 64.4858C115.981 59.1415 115.937 53.8004 115.073 48.5247L115.07 48.528Z" fill="#2E2320"/>
<path d="M38.2705 46C38.2705 43.3478 39.3241 40.8043 41.1994 38.9289C43.0748 37.0536 45.6183 36 48.2705 36H68.2705C70.9227 36 73.4662 37.0536 75.3416 38.9289C77.2169 40.8043 78.2705 43.3478 78.2705 46V66C78.2705 68.6522 77.2169 71.1957 75.3416 73.0711C73.4662 74.9464 70.9227 76 68.2705 76H48.2705C45.6183 76 43.0748 74.9464 41.1994 73.0711C39.3241 71.1957 38.2705 68.6522 38.2705 66V46Z" stroke="#EB3300" stroke-width="4" stroke-linecap="round" stroke-linejoin="round"/>
<path d="M54.9372 51V61L63.2705 56L54.9372 51Z" stroke="#EB3300" stroke-width="4" stroke-linecap="round" stroke-linejoin="round"/>
</svg>
